<svg
  height="40"
  width="40"
  xmlns="http://www.w3.org/2000/svg" 
  xmlns:xlink="http://www.w3.org/1999/xlink" 
  version="1.1" 
  viewBox="0 0 512 512"
>
  <path d="m190.667 304.2c0-8.284-6.716-15-15-15h-96.4c-8.284 0-15 6.716-15 15v147.8h126.4z" />
  <path d="m497 144.6h-96.4c-8.284 0-15 6.716-15 15v292.4h111.4c5.259 0 10.305.915 15 2.58v-294.98c0-8.284-6.716-15-15-15z" />
  <path d="m351.333 15c0-8.284-6.716-15-15-15h-96.4c-8.284 0-15 6.716-15 15v437h126.4z" />
  <path d="m497 482h-467v-467c0-8.284-6.716-15-15-15s-15 6.716-15 15v482c0 8.284 6.716 15 15 15h482c8.284 0 15-6.716 15-15s-6.716-15-15-15z" />
</svg>
