<svg
  height="40"
  width="40"
  xmlns="http://www.w3.org/2000/svg"
  xmlns:xlink="http://www.w3.org/1999/xlink"
  version="1.1"
  viewBox="0 0 100 100"
  xml:space="preserve"
>
    <path
      d="M78.1,18l-3.2,3.2C82.1,29.1,86.2,39,86.5,50H91C90.6,37,86.1,26.7,78.1,18z"
    ></path>
    <path d="M45,71.1c4-0.3,8.2-2,11.4-4.8L45,54.6V71.1z"></path>
    <path
      d="M45,92.5V95c11-0.3,20.2-4.5,27.8-11.8L58.3,68.2c-3.7,3.4-8.3,5.3-13.3,5.6V92.5z"
    ></path>
    <path d="M45,19.7v15.1v13l24.2-24.8C62.5,16.7,55,13.1,45,12.8V19.7z"></path>
    <path d="M83.8,50C83.5,40,79.7,30.6,73,23.3L46.9,50h33.2H83.8z"></path>
    <path
      d="M45,10c10,0.3,18.9,4.2,26.1,11.1l3.5-3.5C66.5,9.8,56,5.3,45,5V10z"
    ></path>
    <path d="M55,61.1l14.3,14.5C74.7,69,77,62,77.3,53H46.9L55,61.1z"></path>
    <path
      d="M91,53h-4.4h-6.5c-0.2,10-3,17.6-9,24.6l7,7.2C86.1,76.1,90.6,65,91,53z"
    ></path>
    <path
      d="M12.2,50h4.6h0c0.3-6,2.7-12.4,6.9-17.1l-3.3-3.4C15.4,35.1,12.5,43,12.2,50z"
    ></path>
    <path
      d="M9,53c0.3,8,3.5,16.3,9.2,22.5l5.5-5.6C19.5,65.2,17.1,59,16.8,53h0H9.4H9z"
    ></path>
    <path
      d="M26,34.9C22.4,39.1,19.9,45,19.6,50h20.8L32,40.6v-0.1L26,34.9z"
    ></path>
    <path d="M43,73.9V54.6L18.8,79.4C25.5,85.7,34,89.3,43,89.7V73.9z"></path>
    <path d="M25.7,67.9l7.8-7.8l6.9-7H19.6C19.9,58,22,63.7,25.7,67.9z"></path>
    <path d="M43,37.6c-3,0.3-5,1.3-7,3l7,7.2V37.6z"></path>
    <path
      d="M43,22.5c-7,0.3-13,2.9-17.9,7.4l8.7,8.7c2.5-2.2,5.1-3.5,9.1-3.8V22.5z"
    ></path>
</svg>
