<svg
  height="40"
  width="40"
  xmlns="http://www.w3.org/2000/svg"
  xmlns:xlink="http://www.w3.org/1999/xlink"
  version="1.1"
  viewBox="0 0 64 64"
  xml:space="preserve"
>
  <path
    d="M11.689,51.864c0.097,0.193,0.254,0.351,0.447,0.447l19.417,9.708c0.003,0.002,0.007,0.001,0.01,0.002  c0.068,0.033,0.139,0.061,0.214,0.078c0.074,0.017,0.149,0.025,0.223,0.025c0.143,0,0.28-0.038,0.41-0.097  c0.012-0.005,0.026-0.003,0.037-0.009l19.417-9.708c0.193-0.097,0.351-0.254,0.447-0.447l9.708-19.417  c0.141-0.282,0.141-0.613,0-0.895l-9.708-19.417c-0.097-0.193-0.254-0.351-0.447-0.447l-19.261-9.63  C32.326,1.921,32,1.918,31.722,2.052l-19.833,9.534c-0.207,0.099-0.373,0.267-0.471,0.474L2.079,31.786  c-0.131,0.277-0.128,0.6,0.009,0.875L11.689,51.864z M13.77,14.535l2.785,1.466l-0.152,0.073c-0.207,0.099-0.373,0.267-0.471,0.474  l-3.722,7.86L13.77,14.535z M48.28,17.491l-0.441-0.882c-0.097-0.193-0.254-0.351-0.447-0.447l-0.129-0.064l1.899-0.999  L48.28,17.491z M46.199,17.801l1.132,2.265l-1.897,5.149l-2.067-4.135c-0.097-0.193-0.254-0.351-0.447-0.447l-2.193-1.096  l4.357-2.293L46.199,17.801z M47.359,43.878l-1.264-6.416l2.507-5.015c0.141-0.282,0.141-0.613,0-0.895l-1.941-3.883l1.897-5.15  l4.74,9.48L47.359,43.878z M24.935,39.646c-0.082-0.217-0.237-0.399-0.439-0.514l-4.928-2.816L17.44,32.06l4.663-9.849l3.266-1.57  l4.407,2.319l-4.345,2.089c-0.207,0.099-0.373,0.267-0.471,0.474l-2.865,6.05c-0.131,0.277-0.128,0.6,0.009,0.875l3,6  c0.097,0.193,0.254,0.351,0.447,0.447l6,3C31.693,41.965,31.847,42,32,42s0.307-0.035,0.447-0.105l6-3  c0.193-0.097,0.351-0.254,0.447-0.447l3-6c0.141-0.282,0.141-0.613,0-0.895l-3-6c-0.097-0.193-0.254-0.351-0.447-0.447l-4.257-2.128  l4.357-2.293l3.179,1.589l2.759,5.517l-1.424,3.864c-0.063,0.172-0.078,0.359-0.042,0.539l0.982,4.984l-2.274,4.549L32,46.59  l-5.471-2.735L24.935,39.646z M23.891,42.536l-1.618-0.809L21.18,39.54l2.012,1.15L23.891,42.536z M31.991,24.114l5.264,2.631  L39.882,32l-2.627,5.255L32,39.882l-5.255-2.627l-2.633-5.267l2.505-5.291L31.991,24.114z M32,21.87l-4.387-2.309l4.43-2.13  l4.303,2.151L32,21.87z M45.036,32.082l0.677-1.837L46.59,32l-1.127,2.253L45.036,32.082z M38.525,18.436l-6.026-3.013  c-0.276-0.139-0.602-0.141-0.88-0.007l-6.209,2.985l-4.407-2.32l11.092-5.332l10.787,5.393L38.525,18.436z M23.166,19.48  l-2.248,1.081c-0.207,0.099-0.373,0.267-0.471,0.474l-5.023,10.609c-0.131,0.277-0.128,0.6,0.009,0.875l1.004,2.008l-5.342-3.053  l0.008-0.053l6.485-13.698l1.17-0.562L23.166,19.48z M18.049,37.751l2.584,5.168c0.097,0.193,0.254,0.351,0.447,0.447l3.855,1.927  l2.089,5.516l-9.224-4.611l-6.012-12.025L18.049,37.751z M27.574,46.613l3.979,1.99c0.141,0.07,0.294,0.105,0.447,0.105  s0.307-0.035,0.447-0.105l10.472-5.236c0.193-0.097,0.351-0.254,0.447-0.447l1.266-2.533l1.183,6.004L32,53.298l-2.337-1.169  L27.574,46.613z M31.553,55.311c0.141,0.07,0.294,0.105,0.447,0.105s0.307-0.035,0.447-0.105l8.935-4.467l-8.98,8.52l-1.695-4.476  L31.553,55.311z M60.006,32l-9.335,18.671l-13.108,6.553l10.07-9.555c0.004-0.004,0.006-0.008,0.01-0.012  c0.014-0.013,0.023-0.03,0.036-0.044c0.054-0.059,0.1-0.122,0.138-0.191c0.006-0.011,0.017-0.019,0.022-0.031l7.472-14.944  c0.141-0.282,0.141-0.613,0-0.895l-5.803-11.608l1.897-5.15L60.006,32z M32.146,4.067l17.272,8.635l-4.357,2.293l-12.51-6.255  c-0.276-0.138-0.602-0.141-0.88-0.007l-12.872,6.188l-4.407-2.319L32.146,4.067z M11.388,16.799L9.173,30.824l-0.422,0.891  c-0.131,0.277-0.128,0.6,0.009,0.875l7.4,14.802c0.097,0.193,0.254,0.351,0.447,0.447l11.461,5.73l2.089,5.516l-16.83-8.414  L4.095,32.202L11.388,16.799z"
  ></path>
  <path
    d="M29.578,33.975c0.097,0.193,0.254,0.351,0.447,0.447l1.528,0.764c0.141,0.07,0.294,0.105,0.447,0.105  s0.307-0.035,0.447-0.105l1.528-0.764c0.193-0.097,0.351-0.254,0.447-0.447l0.764-1.528c0.141-0.282,0.141-0.613,0-0.895  l-0.764-1.528c-0.097-0.193-0.254-0.351-0.447-0.447l-1.58-0.79c-0.276-0.138-0.602-0.141-0.881-0.007l-1.569,0.755  c-0.206,0.1-0.372,0.267-0.47,0.473L28.769,31.5c-0.131,0.278-0.128,0.601,0.009,0.875L29.578,33.975z M31.131,31.185l0.808-0.389  l0.843,0.421L33.174,32l-0.391,0.783L32,33.174l-0.783-0.391l-0.433-0.866L31.131,31.185z"
  ></path>
</svg>
